HIERARCHY
ROOT SimulationBone
{
	OFFSET 0.000000 0.000000 0.000000
	CHANNELS 6 Xposition Yposition Zposition Zrotation Yrotation Xrotation 
	JOINT Hips
	{
		OFFSET 0.000000 0.000000 0.000000
		CHANNELS 6 Xposition Yposition Zposition Zrotation Yrotation Xrotation 
		JOINT RightUpLeg
		{
			OFFSET 0.103457 1.857824 10.548509
			CHANNELS 3 Zrotation Yrotation Xrotation
			JOINT RightLeg
			{
				OFFSET 43.500000 -0.000023 0.000006
				CHANNELS 3 Zrotation Yrotation Xrotation
				JOINT RightFoot
				{
					OFFSET 42.372192 0.000011 -0.000009
					CHANNELS 3 Zrotation Yrotation Xrotation
					JOINT RightToe
					{
						OFFSET 17.300005 0.000002 -0.000010
						CHANNELS 3 Zrotation Yrotation Xrotation
						End Site
						{
							OFFSET 0.000000 0.000000 0.000000
						}
					}
				}
			}
		}
		JOINT LeftUpLeg
		{
			OFFSET 0.103458 1.857836 -10.548506
			CHANNELS 3 Zrotation Yrotation Xrotation
			JOINT LeftLeg
			{
				OFFSET 43.500038 -0.000023 0.000017
				CHANNELS 3 Zrotation Yrotation Xrotation
				JOINT LeftFoot
				{
					OFFSET 42.372269 -0.000019 0.000007
					CHANNELS 3 Zrotation Yrotation Xrotation
					JOINT LeftToe
					{
						OFFSET 17.299999 -0.000003 0.000008
						CHANNELS 3 Zrotation Yrotation Xrotation
						End Site
						{
							OFFSET 0.000000 0.000000 0.000000
						}
					}
				}
			}
		}
		JOINT Spine
		{
			OFFSET 6.901969 -2.603729 0.000003
			CHANNELS 3 Zrotation Yrotation Xrotation
			JOINT Spine1
			{
				OFFSET 12.588093 -0.000007 0.000001
				CHANNELS 3 Zrotation Yrotation Xrotation
				JOINT Spine2
				{
					OFFSET 12.343206 0.000014 -0.000007
					CHANNELS 3 Zrotation Yrotation Xrotation
					JOINT Neck
					{
						OFFSET 25.832899 -0.000010 0.000002
						CHANNELS 3 Zrotation Yrotation Xrotation
						JOINT Head
						{
							OFFSET 11.766599 0.000010 -0.000001
							CHANNELS 3 Zrotation Yrotation Xrotation
							End Site
							{
								OFFSET 0.000000 0.000000 0.000000
							}
						}
					}
					JOINT RightShoulder
					{
						OFFSET 19.745895 -1.480371 6.000111
						CHANNELS 3 Zrotation Yrotation Xrotation
						JOINT RightArm
						{
							OFFSET 11.284124 -0.000010 -0.000007
							CHANNELS 3 Zrotation Yrotation Xrotation
							JOINT RightForeArm
							{
								OFFSET 33.000061 0.000006 0.000028
								CHANNELS 3 Zrotation Yrotation Xrotation
								JOINT RightHand
								{
									OFFSET 25.200001 0.000019 0.000008
									CHANNELS 3 Zrotation Yrotation Xrotation
									End Site
									{
										OFFSET 0.000000 0.000000 0.000000
									}
								}
							}
						}
					}
					JOINT LeftShoulder
					{
						OFFSET 19.746101 -1.480375 -6.000078
						CHANNELS 3 Zrotation Yrotation Xrotation
						JOINT LeftArm
						{
							OFFSET 11.284128 -0.000010 -0.000011
							CHANNELS 3 Zrotation Yrotation Xrotation
							JOINT LeftForeArm
							{
								OFFSET 33.000095 0.000022 0.000002
								CHANNELS 3 Zrotation Yrotation Xrotation
								JOINT LeftHand
								{
									OFFSET 25.199768 0.000129 0.000422
									CHANNELS 3 Zrotation Yrotation Xrotation
									End Site
									{
										OFFSET 0.000000 0.000000 0.000000
									}
								}
							}
						}
					}
				}
			}
		}
	}
}
MOTION
Frames: 11
Frame Time: 0.016667
-292.760221 0.000000 162.028994 0.000000 78.814955 0.000000 -4.274792 90.200436 0.091009 84.563629 -0.565835 179.863453 164.193977 5.788594 170.486917 -22.295891 3.087543 -8.845296 87.560560 5.924891 -0.338434 21.454556 0.003117 0.000019 144.597877 6.329352 -176.670449 -75.311604 -1.715212 2.949513 69.991402 1.212857 9.546766 21.454549 -0.003094 0.000003 7.003192 -0.680685 -0.699126 4.002095 -1.337024 -1.421193 3.684010 -1.345721 -1.413103 -14.299570 -12.506776 5.774146 -22.007673 5.397838 -0.846086 151.878545 -77.803686 27.170232 37.618522 56.122891 40.974799 -52.665723 -13.518984 1.769695 3.534888 -9.933278 5.710836 160.055946 86.991598 -18.385845 21.208402 -58.501476 -76.135751 -31.122095 12.734313 -1.105457 12.372081 -1.552876 3.361344 
-292.631619 0.000000 160.572284 0.000000 78.790931 0.000000 -4.370595 90.231750 0.124989 84.394682 -0.332631 179.747264 165.000213 5.678890 170.624519 -22.202998 3.130763 -8.949758 88.282503 5.943452 -0.581139 21.454557 0.003120 0.000018 143.173004 5.615208 -177.008710 -72.942881 -1.558106 3.761198 70.564507 0.578476 9.588051 21.454546 -0.003088 -0.000003 6.991990 -0.560782 -0.794294 3.978989 -1.094204 -1.607242 3.660963 -1.104027 -1.600620 -14.270482 -11.913223 5.784064 -22.043331 5.178318 -0.533979 151.669224 -77.955881 27.373385 37.403809 56.074099 40.414061 -53.337629 -13.471513 1.789254 3.507555 -10.600666 4.648848 161.786383 87.017093 -16.647007 22.177721 -58.037871 -76.296858 -31.603728 13.093710 -1.138682 12.346753 -1.948927 3.259131 
-292.486421 0.000000 159.102109 0.000000 78.788160 0.000000 -4.480063 90.197104 0.132364 84.197880 -0.219456 179.645831 165.748998 5.703584 170.714184 -22.160606 3.195107 -9.060740 89.074226 5.963104 -0.855670 21.454559 0.003108 0.000016 141.926593 5.027209 -177.403517 -70.064818 -1.343035 4.469135 71.029800 0.082455 9.793470 21.454544 -0.003086 -0.000005 6.980471 -0.468666 -0.886708 3.955301 -0.907067 -1.788776 3.637335 -0.917989 -1.783278 -14.314849 -11.331916 5.831591 -22.083620 4.943608 -0.190859 151.160318 -78.117799 27.879804 37.150909 55.985319 39.804478 -54.052428 -13.351474 1.805796 3.390940 -10.859991 3.929915 164.249714 87.043590 -14.172103 22.873759 -57.611961 -76.419085 -32.145870 13.470522 -1.174300 12.291724 -2.072031 2.941390 
-292.319074 0.000000 157.616817 0.000000 78.809521 0.000000 -4.596710 90.110619 0.105970 83.994379 -0.212180 179.563962 166.485055 5.848688 170.784167 -22.139688 3.262542 -9.163711 89.902528 5.983564 -1.112677 21.454562 0.003095 0.000015 140.902225 4.577604 -177.809345 -66.696475 -1.081428 5.067103 71.337117 -0.299325 10.073953 21.454545 -0.003087 -0.000003 6.974406 -0.403639 -0.976377 3.942696 -0.774124 -1.965812 3.624784 -0.786118 -1.961109 -14.436409 -10.763505 5.889451 -22.115989 4.686054 0.160251 150.531192 -78.271879 28.508442 36.740270 55.832836 39.067838 -54.783440 -13.199019 1.820700 3.200994 -10.719562 3.608998 166.516892 87.068334 -11.894228 23.436956 -57.290088 -76.493814 -32.729080 13.856961 -1.211335 12.155058 -1.954582 2.517709 
-292.133859 0.000000 156.116310 0.000000 78.856532 0.000000 -4.713067 89.988956 0.050860 83.805858 -0.286728 179.507401 167.251906 6.082586 170.853273 -22.114731 3.312703 -9.231078 90.734045 5.994490 -1.299981 21.454561 0.003097 0.000015 140.143989 4.264708 -178.164667 -62.848542 -0.795151 5.519677 71.468981 -0.587086 10.279459 21.454548 -0.003089 -0.000001 6.978500 -0.363026 -1.063195 3.950660 -0.689925 -2.138042 3.632787 -0.702964 -2.133848 -14.621067 -10.206679 5.923888 -22.134683 4.421836 0.481894 150.023679 -78.401284 29.015107 36.061127 55.587351 38.145794 -55.504163 -13.055223 1.836121 2.965796 -10.215195 3.713146 167.794408 87.086462 -10.610563 24.005114 -57.120552 -76.506283 -33.347099 14.255193 -1.250178 11.905623 -1.689117 2.089780 
-291.939265 0.000000 154.604951 0.000000 78.930912 0.000000 -4.831385 89.836960 -0.021640 83.618091 -0.424254 179.467658 168.032298 6.370704 170.883574 -22.084573 3.346346 -9.243502 91.580623 5.980444 -1.425231 21.454560 0.003104 0.000016 139.638162 4.054707 -178.370841 -58.529215 -0.613015 5.686553 71.390584 -0.699417 10.314161 21.454551 -0.003089 0.000000 6.985300 -0.344512 -1.145147 3.964349 -0.650002 -2.301312 3.646504 -0.664032 -2.297357 -14.813056 -9.729313 5.945120 -22.128694 4.249988 0.725395 149.549297 -78.487166 29.490732 35.214788 55.256324 37.110418 -56.204328 -12.933089 1.852674 2.723797 -9.492237 4.153862 168.646246 87.089643 -9.754964 24.534436 -57.083079 -76.504189 -33.963620 14.654946 -1.289579 11.669084 -1.283818 1.757654 
-291.737579 0.000000 153.088189 0.000000 79.034765 0.000000 -4.954756 89.655728 -0.105682 83.410582 -0.612223 179.431972 168.795528 6.683925 170.833387 -22.058733 3.365955 -9.187829 92.461702 5.927768 -1.516467 21.454559 0.003103 0.000016 139.361176 3.912770 -178.338429 -53.745174 -0.638098 5.429916 71.085753 -0.541028 10.168076 21.454550 -0.003086 -0.000001 6.985235 -0.345958 -1.219989 3.964664 -0.650336 -2.451021 3.646846 -0.665271 -2.447052 -14.950597 -9.391339 5.973524 -22.092409 4.240505 0.866271 148.996577 -78.517989 30.049040 34.324105 54.866356 36.052002 -56.870961 -12.844298 1.870570 2.510856 -8.699688 4.809292 169.871859 87.070503 -8.524663 24.943250 -57.146239 -76.526779 -34.539668 15.041197 -1.327387 11.559716 -0.753682 1.590318 
-291.527024 0.000000 151.569429 0.000000 79.169549 0.000000 -5.076997 89.443199 -0.198429 83.173645 -0.857439 179.386755 169.519886 7.013393 170.705893 -22.065046 3.360000 -9.067348 93.382127 5.832822 -1.622342 21.454560 0.003102 0.000016 139.306625 3.831408 -178.058510 -48.501142 -0.849191 4.793788 70.632823 -0.056359 10.123227 21.454550 -0.003086 -0.000002 6.972436 -0.365472 -1.286425 3.939881 -0.687365 -2.584464 3.622095 -0.703103 -2.580259 -14.989929 -9.151988 6.021458 -22.050559 4.264453 0.987725 148.507844 -78.518298 30.544364 33.396916 54.472666 35.014434 -57.464129 -12.823294 1.890286 2.345455 -7.888651 5.532852 171.819430 87.041812 -6.569353 25.183268 -57.304459 -76.520397 -35.056300 15.392091 -1.361827 11.485405 -0.234104 1.528346 
-291.307087 0.000000 150.052163 0.000000 79.335906 0.000000 -5.190116 89.203010 -0.296812 82.903866 -1.153985 179.316387 170.198641 7.342600 170.507957 -22.113999 3.321161 -8.887346 94.330099 5.696177 -1.779844 21.454561 0.003107 0.000017 139.476824 3.794976 -177.529749 -42.805629 -1.183361 3.854130 70.124230 0.748703 10.343004 21.454552 -0.003094 -0.000002 6.944005 -0.398795 -1.342782 3.884137 -0.752756 -2.698097 3.566389 -0.769175 -2.693496 -14.908962 -8.945925 6.095577 -22.026610 4.188524 1.175922 148.235175 -78.518354 30.820782 32.425411 54.134338 34.010502 -57.944759 -12.886956 1.911756 2.234762 -7.112564 6.199007 174.536637 87.017511 -3.840512 25.223460 -57.560710 -76.421073 -35.502169 15.686910 -1.391181 11.341513 0.151089 1.497616 
-291.078926 0.000000 148.538571 0.000000 79.534298 0.000000 -5.293199 88.964760 -0.400850 82.611247 -1.425575 179.194527 170.875678 7.606596 170.216469 -22.128025 3.272213 -8.644784 95.241209 5.520274 -1.958438 21.454562 0.003112 0.000017 139.889185 3.734107 -176.702103 -36.705781 -1.498176 2.637363 69.591014 1.641284 10.230486 21.454555 -0.003097 -0.000001 6.905256 -0.431940 -1.384976 3.807720 -0.818574 -2.783300 3.490002 -0.835500 -2.778310 -14.754624 -8.709841 6.189021 -22.005879 4.060795 1.422059 148.131241 -78.530709 30.925389 31.469570 53.898595 32.989259 -58.303532 -12.959099 1.929890 2.168990 -6.528675 6.788657 177.289102 87.005762 -1.075598 25.073419 -57.925009 -76.221719 -35.876753 15.916286 -1.414783 11.183130 0.448543 1.500338 
-290.846208 0.000000 147.027831 0.000000 79.763822 0.000000 -5.383858 88.749475 -0.509482 82.313683 -1.616158 179.009717 171.596493 7.772551 169.847111 -22.049575 3.238797 -8.356436 96.057653 5.318825 -2.127826 21.454561 0.003110 0.000016 140.554397 3.590862 -175.567755 -30.300917 -1.661108 1.220464 69.060248 2.419446 9.385241 21.454554 -0.003085 0.000002 6.862990 -0.454388 -1.411626 3.723942 -0.863648 -2.837021 3.406237 -0.880887 -2.831767 -14.571760 -8.407071 6.294729 -21.976038 3.953793 1.697574 148.106782 -78.553166 30.948694 30.596293 53.797336 31.918652 -58.539063 -12.977418 1.939821 2.132175 -6.275133 7.293910 179.350480 87.011774 0.995562 24.754571 -58.390715 -75.931072 -36.184869 16.083733 -1.432973 11.081227 0.717383 1.545781 
